<svg xmlns="http://www.w3.org/2000/svg" viewBox="0 0 32 32">
  <circle cx="16" cy="16" r="15" fill="#0a0a12" stroke="#d4912a" stroke-width="1.5"/>
  <path d="M16 4C12 4 9 7.5 9 11.5C9 14 10.2 16 11.5 17.5C12.3 18.3 13 19.5 13 21V26C13 27.7 14.3 29 16 29C17.7 29 19 27.7 19 26V21C19 19.5 19.7 18.3 20.5 17.5C21.8 16 23 14 23 11.5C23 7.5 20 4 16 4Z" fill="#1a1428" stroke="#d4912a" stroke-width="1"/>
  <circle cx="16" cy="11.5" r="2.2" fill="#0a0a12" stroke="#d4912a" stroke-width="0.8"/>
  <line x1="16" y1="13.7" x2="16" y2="26" stroke="#d4912a" stroke-width="1"/>
</svg>
